<?xml version="1.0" encoding="UTF-8" standalone="no"?>
<!-- Created with Inkscape (http://www.inkscape.org/) -->

<svg
   version="1.1"
   id="svg1099"
   width="818.5061"
   height="1171.7178"
   viewBox="0 0 818.5061 1171.7178"
   sodipodi:docname="path1580.svg"
   xmlns:inkscape="http://www.inkscape.org/namespaces/inkscape"
   xmlns:sodipodi="http://sodipodi.sourceforge.net/DTD/sodipodi-0.dtd"
   xmlns:xlink="http://www.w3.org/1999/xlink"
   xmlns="http://www.w3.org/2000/svg"
   xmlns:svg="http://www.w3.org/2000/svg">
  <defs
     id="defs1103">
    <linearGradient
       inkscape:collect="always"
       id="linearGradient1656">
      <stop
         style="stop-color:#00cefe;stop-opacity:0.93725491;"
         offset="0"
         id="stop1652" />
      <stop
         style="stop-color:#0070a2;stop-opacity:0.93700784;"
         offset="1"
         id="stop1654" />
    </linearGradient>
    <linearGradient
       inkscape:collect="always"
       xlink:href="#linearGradient1656"
       id="linearGradient1658"
       x1="43.9118"
       y1="653.88629"
       x2="862.41791"
       y2="653.88629"
       gradientUnits="userSpaceOnUse" />
  </defs>
  <sodipodi:namedview
     id="namedview1101"
     pagecolor="#ffffff"
     bordercolor="#000000"
     borderopacity="0.25"
     inkscape:showpageshadow="2"
     inkscape:pageopacity="0.0"
     inkscape:pagecheckerboard="0"
     inkscape:deskcolor="#d1d1d1"
     showgrid="false" />
  <g
     inkscape:groupmode="layer"
     inkscape:label="Image"
     id="g1105"
     transform="translate(-43.9118,-68.027443)">
    <path
       style="fill:url(#linearGradient1658);fill-opacity:1"
       d="m 213.3401,1239.0195 c 0.37134,-0.6008 2.33189,-1.7742 4.35678,-2.6075 6.49936,-2.6746 33.285,-19.2264 46.94452,-29.0086 13.1341,-9.406 13.35869,-9.5174 25.99284,-12.8929 95.77985,-25.59 112.24426,-30.7333 112.24426,-35.0639 0,-0.7845 -0.5625,-1.2438 -1.25,-1.0205 -1.13329,0.368 -18.63073,5.2921 -42.25,11.89 -21.32166,5.9561 -64.32021,16.1544 -65.04686,15.4278 -0.225,-0.225 1.93156,-2.1815 4.79235,-4.3478 7.44014,-5.6339 18.47266,-15.2137 32.00746,-27.7928 l 11.75294,-10.9231 9.74706,-2.9689 c 30.75948,-9.3694 70.59256,-19.7438 75.86746,-19.7595 4.50328,-0.013 9.39892,-2.2128 11.50324,-5.1681 l 2.20985,-3.1034 -4.62352,0.6933 c -5.21145,0.7815 -43.73028,10.5184 -65.70998,16.6102 -7.975,2.2104 -15.27506,3.8962 -16.22234,3.7462 -1.24529,-0.1971 1.38601,-3.6207 9.5,-12.3604 6.17228,-6.6483 13.92234,-15.109 17.22234,-18.8015 5.32557,-5.9591 7.06785,-7.172 15.5,-10.7903 10.70189,-4.5922 36.21388,-13.0988 52,-17.3384 5.775,-1.551 11.09825,-3.3583 11.82943,-4.0162 0.73119,-0.6578 1.18119,-2.3428 1,-3.7443 l -0.32943,-2.5481 -13.5,5.4731 c -27.32473,11.0778 -45.5506,15.1225 -60.39685,13.4033 -20.10707,-2.3284 -19.68647,-2.2445 -18.48816,-3.6884 0.62145,-0.7488 1.7149,-1.3614 2.42991,-1.3614 2.2358,0 62.51058,-30.6555 64.8246,-32.9695 0.52134,-0.5213 -0.58518,-1.1679 -2.66701,-1.5585 -2.94391,-0.5523 -4.30403,-0.1575 -7.88026,2.2871 -8.41223,5.7504 -28.07042,16.1027 -47.57192,25.052 l -19.75031,9.0636 -25.715,-0.5895 c -14.14324,-0.3242 -25.51341,-0.9156 -25.26703,-1.3143 0.24637,-0.3986 3.04312,-1.743 6.21499,-2.9874 9.21363,-3.6148 41.72825,-20.0695 54.26704,-27.463 6.325,-3.7295 12.73465,-7.5098 14.24368,-8.4007 1.50902,-0.8909 2.74652,-2.0135 2.75,-2.4948 0.0142,-1.9611 -6.73192,0.7224 -18.76622,7.465 -7.0001,3.922 -25.77746,13.5932 -41.72746,21.4916 l -29,14.3607 -17.71058,0.2349 c -9.74082,0.1293 -17.94765,0 -18.23739,-0.2918 -0.97947,-0.9795 10.16907,-13.5117 19.31415,-21.7112 20.36087,-18.2557 46.30515,-34.6512 72.3361,-45.7127 17.57938,-7.4701 14.74151,-8.8326 -3.90275,-1.8737 -15.17891,5.6654 -30.01965,12.5859 -51.61818,24.0703 -10.90026,5.7958 -19.98406,10.3725 -20.18623,10.1704 -0.37418,-0.3742 17.85152,-30.6978 21.69382,-36.0938 4.34639,-6.104 48.14866,-25.71416 73.17791,-32.76156 9.21782,-2.5955 13.94914,-5.06172 11.97911,-6.24425 -2.43999,-1.46462 -45.19796,13.23665 -65.05801,22.36863 -4.73744,2.1784 -8.99582,3.8332 -9.46305,3.6775 -1.19673,-0.3989 5.06666,-9.64798 13.87301,-20.48608 l 7.48437,-9.21117 10.15886,-3.91777 c 18.66326,-7.19748 46.29209,-15.18849 58.11868,-16.80951 2.49,-0.34129 5.31768,-1.22045 6.28373,-1.95369 1.56668,-1.18912 1.36204,-1.33659 -1.89418,-1.36496 -5.74514,-0.05 -25.83626,3.6415 -43.72122,8.03335 -9.00451,2.21116 -16.87671,3.852 -17.49377,3.64631 -0.61706,-0.20569 3.60719,-5.14914 9.38722,-10.98546 12.67414,-12.79757 18.04331,-15.677 33.9784,-18.22225 5.775,-0.92242 11.4,-2.03713 12.5,-2.47714 1.7891,-0.71565 1.68365,-0.87346 -1,-1.49658 -31.40174,-7.29121 -58.9031,-18.27732 -84.73887,-33.85106 -7.00639,-4.22344 -13.53282,-7.67897 -14.50319,-7.67897 -0.97037,0 -4.89988,0.89669 -8.73225,1.99265 -32.75717,9.36771 -38.81473,32.47262 -15.13362,57.72302 8.31037,8.86108 9.60793,10.91783 9.60793,15.22949 0,12.38618 -16.43188,25.19804 -46.78903,36.48122 -23.04306,8.5647 -43.93531,13.17148 -75.87057,16.72968 -25.85071,2.8803 -79.592541,3.139 -101.765953,0.4899 -7.65906,-0.9151 -14.13597,-1.8742 -14.39313,-2.1314 -0.60339,-0.6033 -0.0207,-0.8033 14.76889,-5.06818 15.23114,-4.3923 30.719582,-9.5337 42.147563,-13.99088 l 8.59778,-3.3534 9.40222,1.3855 c 13.23619,1.9505 39.02104,4.52308 44.66136,4.45598 5.45834,-0.065 11.84893,-1.9771 11.50923,-3.44358 -0.13083,-0.5648 -7.96472,-1.5097 -18,-2.1711 -20.58788,-1.3569 -36.4717,-3.2706 -36.05709,-4.3442 0.1588,-0.4112 5.57993,-3.4671 12.04695,-6.7909 l 11.75823,-6.04338 29.90955,1.09368 c 28.81459,1.05363 30.01324,1.02342 32.74178,-0.82522 l 2.83222,-1.91888 -20.5,-0.66521 c -11.275,-0.36586 -24.24736,-0.97166 -28.82746,-1.34622 l -8.32747,-0.68101 7.32747,-5.38182 c 11.87702,-8.72335 23.87687,-11.40135 51.16079,-11.41754 10.61804,-0.006 13.73708,-0.29874 13.4192,-1.2582 -0.30129,-0.90941 -5.43291,-1.41607 -18.83333,-1.8595 -24.79037,-0.82033 -36.03697,-3.41621 -40.17326,-9.27257 -1.21119,-1.71486 -3.11201,-3.86669 -4.22405,-4.78185 -1.11204,-0.91516 -1.72188,-1.96517 -1.3552,-2.33336 0.36668,-0.36818 9.71565,-0.16794 20.77549,0.44499 19.40282,1.07529 30.05782,0.70614 30.05782,-1.04136 0,-2.07029 -4.79848,-2.90641 -16.68426,-2.90719 -12.0407,-7.8e-4 -30.52081,-1.24278 -38.25963,-2.57131 -2.5268,-0.43379 -5.18973,-2.37841 -10,-7.30259 -3.60586,-3.69125 -8.29087,-8.18223 -10.41112,-9.97996 -2.12026,-1.79773 -3.69526,-3.42238 -3.5,-3.61033 0.19525,-0.18796 11.03759,0.1447 24.09409,0.73924 13.05649,0.59453 24.03311,0.78693 24.3925,0.42755 0.35938,-0.35939 0.14182,-1.26987 -0.48346,-2.02329 -0.79798,-0.9615 -5.02157,-1.56647 -14.16818,-2.0294 -23.66284,-1.19761 -44.52757,-4.93203 -50.97994,-9.1245 -1.925,-1.25079 -5.4515,-3.40164 -7.83666,-4.77967 l -4.33666,-2.50552 2.17405,-2.02543 c 3.45938,-3.22291 14.02411,-8.01515 21.56388,-9.78155 8.40779,-1.96975 26.6723,-2.1635 41.20325,-0.43708 8.35514,0.99268 10.56033,0.9772 11.83791,-0.0831 1.40832,-1.1688 1.36916,-1.37735 -0.38015,-2.02446 -2.84255,-1.05153 -24.98308,-3.67873 -37.67744,-4.47082 l -10.95182,-0.68335 2.88428,-2.29985 c 1.58635,-1.26491 7.18967,-4.63042 12.45182,-7.4789 l 9.56754,-5.17906 12,0.51482 c 6.6,0.28316 16.43704,1.4586 21.86008,2.61211 10.71821,2.27982 15.63992,2.63731 15.63992,1.13603 0,-1.34445 -8.22066,-3.67108 -23.85802,-6.75234 l -13.35801,-2.63213 3.46946,-1.77994 c 1.90821,-0.97897 8.11952,-3.63252 13.80291,-5.89678 12.09318,-4.8179 11.99561,-4.82629 30.75005,2.64388 6.21852,2.47692 11.97979,4.36289 12.80282,4.19103 4.27124,-0.89186 0.22733,-3.63846 -16.10921,-10.94127 l -7,-3.12916 10.5,-3.45857 10.5,-3.45856 4.92764,2.07657 c 2.71021,1.14212 5.10175,1.90247 5.31454,1.68968 0.21279,-0.21279 -2.27418,-4.14535 -5.52661,-8.73902 -17.26608,-24.38628 -32.75434,-55.67993 -40.51134,-81.85213 -12.47454,-42.08923 -14.79669,-93.25427 -6.11896,-134.82188 0.68043,-3.25935 0.5826,-3.20531 -5.19589,2.87019 -14.41195,15.15271 -30.78987,21.95169 -52.87894,21.95169 -28.070461,0 -50.093583,-11.30197 -59.919733,-30.75 -2.0965,-4.14942 -1.27484,-4.1008 3.49303,0.20669 4.02166,3.63333 11.756232,8.03667 12.612522,7.18039 0.27634,-0.27635 -1.55166,-2.64609 -4.062232,-5.2661 -8.80063,-9.18426 -13.63403,-21.53623 -13.63403,-34.84238 0,-7.12949 1.89739,-17.93552 3.64603,-20.76487 1.04469,-1.69036 2.32256,1.52303 2.33866,5.88093 0.0229,6.20101 3.70795,16.99022 7.05297,20.64996 l 2.929732,3.20538 -1.602532,-4.82288 c -1.16892,-3.51792 -1.47623,-7.17071 -1.13574,-13.5 0.46497,-8.64319 2.041092,-14.17982 8.163592,-28.67712 3.63654,-8.61087 4.20178,-13.65483 2.13629,-19.06325 -4.44366,-11.63554 -17.887852,-9.34774 -20.939302,3.56325 l -1.2999,5.5 -1.6449,-3.71788 c -4.35525,-9.84395 0.49052,-20.3615 10.97549,-23.82185 4.837712,-1.59659 13.994602,-0.7075 18.996952,1.84451 12.891381,6.57669 21.272101,25.46122 20.136691,45.37463 -0.27927,4.89784 -0.22567,8.77106 0.11911,8.60715 0.34477,-0.16391 3.04539,-1.56892 6.00138,-3.12224 4.75414,-2.49821 15.12548,-5.16291 15.12548,-3.88618 0,0.2637 -1.55551,2.20122 -3.45669,4.3056 -11.16968,12.3635 -12.38159,31.73554 -2.69345,43.05396 5.75042,6.71807 13.86005,8.68121 21.93226,5.30925 16.80366,-7.01929 19.38266,-33.04038 5.94146,-59.94695 -4.05548,-8.11826 -8.98766,-15.23961 -19.86227,-28.67824 -16.26299,-20.09748 -23.96721,-33.75917 -28.6393,-50.78532 -2.23557,-8.14692 -2.62005,-11.57633 -2.63876,-23.53644 -0.0163,-10.44231 0.44172,-15.73722 1.80251,-20.83619 5.59893,-20.97971 16.06051,-36.31176 34.00469,-49.83587 19.25466,-14.51179 40.35221,-21.48647 68.22282,-22.55389 16.76971,-0.64227 29.25978,1.08652 45.34163,6.27586 5.7502,1.85549 10.52202,3.27832 10.60406,3.16185 0.082,-0.11647 1.79829,-3.3843 3.81391,-7.26185 6.2615,-12.04556 15.63986,-22.58962 27.96478,-31.4407 4.22351,-3.0331 4.58328,-3.67833 6.61206,-11.85842 1.18003,-4.75793 3.04247,-11.07932 4.13876,-14.04752 l 1.99325,-5.39672 -6.11877,0.63953 c -9.94565,1.03953 -17.77481,3.45278 -29.71295,9.15868 -7.40559,3.53954 -11.25,4.91847 -11.25,4.0352 0,-2.55667 9.19695,-13.55978 16.8307,-20.13602 12.74484,-10.97929 25.57958,-18.85379 42.03633,-25.79056 6.39328,-2.69486 9.21882,-4.53959 11.97793,-7.8201 1.98599,-2.36131 6.22756,-7.05153 9.42571,-10.42272 l 5.8148,-6.12943 -5.29273,-0.64578 c -2.91101,-0.35517 -10.69274,-0.19155 -17.29274,0.36361 -15.50047,1.30383 -16.77645,1.29737 -15.92481,-0.0806 1.2191,-1.97255 24.65394,-12.70582 32.42481,-14.85072 9.37695,-2.58821 24.00285,-5.01831 30.2353,-5.0236 3.71297,-0.003 6.7355,-1.04845 14,-4.84167 5.09558,-2.66071 10.38194,-5.12097 11.74745,-5.46725 1.58501,-0.40193 2.1274,-0.96765 1.5,-1.5645 -1.72392,-1.63998 -10.40648,-4.12714 -14.7677,-4.23028 -2.31828,-0.0548 -5.34005,-0.44168 -6.71505,-0.85968 l -2.5,-0.75999 3,-1.28669 c 4.44235,-1.90531 26.3528,-2.46935 37.68089,-0.97002 8.09248,1.07108 10.97066,1.05129 17.50215,-0.12036 4.59591,-0.82444 14.51178,-1.40252 24.06422,-1.40291 11.49295,-4.7e-4 16.24805,-0.33426 16.25,-1.14066 0.005,-1.9384 -8.44053,-12.72691 -13.08658,-16.71777 -5.70531,-4.90073 -16.62844,-10.13837 -25.43831,-12.19766 -10.79256,-2.52275 -32.12352,-1.58206 -43.97237,1.93917 -19.43858,5.77673 -37.06783,16.3464 -52.0819,31.22586 l -8.4663,8.39037 -7.7259,-0.0172 c -4.24924,-0.009 -11.74195,-0.86187 -16.65045,-1.89427 -7.88918,-1.65932 -9.45536,-1.71853 -13.5,-0.51033 -2.5165,0.75171 -6.79337,3.2051 -9.50416,5.45197 -5.5622,4.61027 -5.76964,4.61851 -20.93907,0.83133 -14.27011,-3.56265 -26.61379,-9.35234 -39.10789,-18.3432 -6.21589,-4.473 -15.23499,-13.14618 -14.46196,-13.90728 0.2407,-0.23698 6.12125,2.82615 13.06789,6.80697 14.35212,8.22457 26.1446,12.52794 36.47458,13.31048 7.38495,0.55944 18.41121,-0.37102 18.37346,-1.55046 -0.0119,-0.37292 -4.75836,-2.89322 -10.5476,-5.60066 -13.78355,-6.44612 -25.73539,-13.70049 -34.42315,-20.89371 -6.18598,-5.12182 -10.9308,-11.09375 -9.75132,-12.27323 0.22203,-0.22203 3.5414,1.97344 7.37638,4.87882 23.47638,17.78576 55.41021,25.81885 86.04503,21.64498 13.64651,-1.85926 31.32236,-6.95418 31.32236,-9.02839 0,-1.43309 -11.08527,-6.56723 -16.79922,-7.78056 -7.34086,-1.55879 -12.51325,-1.42861 -20.86778,0.5252 l -7.167,1.67609 -6.833,-4.06747 c -18.52485,-11.02726 -35.42208,-25.30225 -46.86462,-39.591807 -6.6842,-8.34729 -18.13675,-26.332227 -17.3005,-27.168477 0.2552,-0.2552 4.42017,3.82133 9.25549,9.05897 21.56593,23.360234 46.29942,39.237424 72.33247,46.432434 16.36237,4.52222 27.08152,6.07836 46.24929,6.71419 l 17.50513,0.58067 7.49487,-5.96906 c 11.60743,-9.24438 11.79024,-9.77164 5.66591,-16.34146 -8.54001,-9.16122 -17.42709,-14.482837 -30.36172,-18.180717 -6.48663,-1.85446 -10.34993,-2.23779 -22.80932,-2.26321 -8.25,-0.0168 -18.10064,0.36607 -21.8903,0.85091 -9.91862,1.26896 -7.76321,-0.50307 5.11458,-4.20484 17.43481,-5.011697 35.50026,-6.504467 50.0816,-4.138287 11.70759,1.899837 14.85446,3.522467 23.07088,11.896047 4.19278,4.272977 9.87324,9.070337 12.62324,10.660787 4.57366,2.64515 5.68866,2.86487 13.07653,2.57682 19.34899,-0.75442 40.20252,4.72648 58.79153,15.45208 5.85386,3.3776 8.15783,4.25024 9,3.4088 0.6947,-0.6941 1.13194,-5.07133 1.13194,-11.33194 0,-9.34274 -0.2524,-10.70265 -3,-16.16363 -6.2161,-12.354757 -17.89578,-21.183464 -37.9126,-28.658224 l -10.0874,-3.766883 6,-0.04134 c 20.73906,-0.142901 51.1177,16.561853 63.4247,34.876287 5.13735,7.64505 5.29064,8.37236 2.54814,12.08961 -3.14215,4.25895 -4.7573,12.44779 -4.30993,21.85147 l 0.36212,7.61172 6.22316,7.79748 c 7.13546,8.94058 10.61821,14.59425 13.77507,22.36154 2.2171,5.45505 2.25783,5.4889 11.74217,9.76034 23.14388,10.42326 46.01144,24.59412 67.02684,41.53604 13.0644,10.5321 41.9784,37.77886 41.4976,39.10483 -0.7978,2.20039 -34.5614,35.50158 -35.273,34.78994 -0.3002,-0.30018 0.4213,-3.65177 1.6033,-7.44798 1.182,-3.7962 2.201,-9.34153 2.2645,-12.32294 l 0.1153,-5.42075 -6,-2.40939 c -10.0867,-4.05049 -25.3874,-8.19103 -37.99997,-10.28327 -13.88191,-2.30279 -41.2959,-2.75649 -52.16705,-0.86337 -6.13201,1.06785 -6.78058,1.01 -8.0809,-0.72072 -2.89704,-3.85592 -7.68018,-14.17185 -10.78439,-23.25897 -2.9569,-8.65589 -3.24437,-9.11744 -3.73697,-6 -0.78085,4.94158 0.98017,23.28855 3.01148,31.37472 l 1.75783,6.99751 5,0.77505 c 35.59355,5.51734 57.6575,14.63209 79.57707,32.87375 l 6.1547,5.12201 8.0939,-3.08978 c 4.4517,-1.69937 8.2531,-2.93059 8.4477,-2.73604 0.1945,0.19456 -3.6124,4.19807 -8.4598,8.8967 -7.4717,7.24224 -9.0622,8.3618 -10.4466,7.35313 -12.6205,-9.19558 -21.80313,-15.16837 -28.36697,-18.45119 -16.35233,-8.17842 -34.29797,-12.00316 -51.15449,-10.90251 l -9.1545,0.59774 -8.3455,-8.25346 c -13.08461,-12.94029 -24.16934,-17.68041 -41.34551,-17.68041 -15.49247,0 -28.20189,4.60778 -38.79321,14.06443 -15.09874,13.48117 -22.05232,32.63135 -18.46339,50.84825 4.05562,20.58582 16.42276,36.24694 34.4311,43.60183 6.25529,2.55476 8.38566,2.85528 25.50092,3.5973 37.70579,1.63471 67.14232,7.02728 94.32458,17.27961 40.04837,15.10502 70.40807,34.49269 99.56017,63.579 33.3424,33.26708 55.4028,69.58847 68.4907,112.76665 4.7202,15.57252 9.1539,37.91423 10.6196,53.51293 0.6589,7.0125 1.5535,12.75 1.9881,12.75 0.4345,0 1.4421,-1.26084 2.239,-2.80187 2.3167,-4.48008 10.2314,-11.13263 16.9228,-14.22417 6.1684,-2.84987 11.0783,-3.96647 26.1796,-5.95371 18.7703,-2.47005 28.669,-13.40941 22.6254,-25.0042 -1.1689,-2.2427 -2.1254,-4.28878 -2.1254,-4.54684 0,-0.25807 1.6875,-0.47909 3.75,-0.49117 2.0625,-0.0121 5.5854,-0.85555 7.8286,-1.87437 7.7578,-3.52339 10.9363,-10.21615 10.2063,-21.49054 -0.5445,-8.41062 -3.2115,-15.0176 -7.912,-19.60036 l -3.3729,-3.28834 -17.7222,-0.38723 c -14.4969,-0.31675 -18.4073,-0.10099 -21.4864,1.18552 -7.2408,3.02539 -11.2914,8.78767 -11.2914,16.06281 0,2.90629 0.7909,4.44062 3.8824,7.53212 3.4523,3.45233 4.4245,3.88235 8.7775,3.88235 6.9344,0 11.5678,-3.42277 12.7754,-9.4375 0.9846,-4.90434 2.9048,-1.56075 2.0625,3.5916 -0.9341,5.71459 -8.8918,13.76996 -15.9934,16.18972 -5.4765,1.86601 -16.1307,2.16539 -21.7291,0.61057 -6.1232,-1.70056 -11.9584,-6.82038 -15.2246,-13.35813 -2.4012,-4.80629 -3.0256,-7.50123 -3.3596,-14.49989 -0.3511,-7.35723 -0.023,-9.74955 2.2728,-16.59637 4.2205,-12.58435 12.5957,-21.86086 23.1985,-25.69487 3.5867,-1.29695 4.4397,-2.80463 1.5876,-2.80592 -3.0186,-0.001 -13.6344,-5.6177 -16.3,-8.62361 -4.3163,-4.86744 -5.1201,-6.19607 -5.9354,-9.81098 -1.2007,-5.32374 0.6643,-12.08169 4.4385,-16.08357 4.0311,-4.27413 5.3357,-4.40221 4.7582,-0.46711 -1.6462,11.21659 12.5992,15.22775 19.7887,5.572 5.7811,-7.76415 4.7959,-19.91964 -2.1305,-26.28709 -4.5265,-4.16124 -11.819,-6.68312 -19.3695,-6.69837 -6.0573,-0.0122 -8.5679,0.62285 -18.6427,4.71572 -9.1862,3.73192 -13.3004,4.85263 -19.5,5.31178 -25.5803,1.89451 -48.2673,-15.38 -52.4034,-39.90147 -1.5093,-8.94805 -0.6886,-17.13443 3.1305,-31.22651 5.6059,-20.68549 4.9805,-34.45366 -2.0594,-45.33394 -4.3317,-6.69485 -11.144,-10.91908 -19.1351,-11.86551 -4.645,-0.55014 -4.9917,-0.75295 -3.3448,-1.95714 2.8499,-2.08394 14.4881,-1.69036 21.6825,0.73326 17.1715,5.78466 25.5242,16.15554 28.35,35.1999 1.967,13.25657 3.0904,16.86497 6.5623,21.07693 9.1123,11.05476 27.4005,11.34255 34.5469,0.54365 8.504,-12.85049 -1.3205,-29.792 -13.5956,-23.44431 -3.6947,1.91061 -5.6896,6.56041 -4.0939,9.54208 1.5977,2.98522 0.4553,3.73311 -2.7877,1.82513 -5.5706,-3.27738 -7.6805,-11.95948 -4.8384,-19.91025 2.0071,-5.61512 6.1536,-10.32873 11.8745,-13.49851 4.5169,-2.50269 6.3112,-2.90776 12.7847,-2.88611 6.1656,0.0206 8.556,0.52699 13.1901,2.79423 6.4503,3.15586 14.6258,11.48641 16.5426,16.85636 1.1862,3.32317 1.057,3.8808 -2.1238,9.16298 -5.9696,9.91345 -7.9713,22.14003 -5.2655,32.16125 2.2966,8.50532 4.3076,12.22835 9.0703,16.79184 10.2454,9.8168 21.8283,12.36666 32.3528,7.12211 6.5878,-3.28286 9.4412,-7.23942 9.9895,-13.85183 0.7708,-9.29444 -4.6444,-16.58284 -12.2864,-16.53642 -2.9287,0.0178 -2.9009,0.0632 1.1721,1.91247 5.9167,2.6864 7.68,5.80309 7.1179,12.58147 -0.7292,8.79264 -6.5678,13.48036 -16.79,13.48036 -9.9882,0 -18.1972,-5.58609 -23.2151,-15.79759 -3.0432,-6.19313 -3.2789,-7.38424 -3.2033,-16.19362 0.063,-7.38015 0.5514,-10.55414 2.1801,-14.17846 2.4586,-5.47116 8.0147,-11.91094 12.8602,-14.90567 11.379,-7.03256 31.5769,-6.35005 43.7808,1.47941 8.9329,5.73092 13.2267,11.65298 19.3631,26.70629 0.8745,2.14517 1.8845,2.70283 5.6675,3.12923 6.6807,0.75301 12.2117,4.80079 15.1328,11.07478 2.7886,5.98942 3.0496,10.27629 0.9339,15.33987 -0.825,1.97451 -1.5,3.75247 -1.5,3.95104 0,0.19856 2.1375,1.45343 4.75,2.78858 6.0812,3.10787 10.5509,7.80131 13.4339,14.10614 3.1415,6.87039 3.14,18.6464 0,26.60192 -2.4742,6.26191 -9.1673,13.71483 -14.6553,16.31905 -4.0586,1.92595 -4.0599,1.93224 -1.8977,9.36995 1.1819,4.06556 1.4917,7.9826 1.1313,14.30392 l -0.4964,8.70519 4.4372,3.12763 c 6.203,4.37228 8.7006,10.25002 8.0704,18.99275 -0.7595,10.53753 -7.5143,21.13087 -15.3812,24.12183 -1.3139,0.49954 -2.3889,1.29938 -2.3889,1.77742 0,0.47804 2.215,3.40037 4.9223,6.49408 2.7072,3.0937 6.4197,8.66676 8.25,12.38456 3.2109,6.5223 3.3277,7.18173 3.3277,18.78067 0,11.73353 -0.086,12.2004 -3.5872,19.52103 -9.3156,19.47632 -27.7389,30.20039 -49.3052,28.70015 -4.9326,-0.34314 -12.7722,-1.96126 -20.0193,-4.13208 -14.5923,-4.37103 -22.9512,-4.74562 -29.0325,-1.30106 -5.2358,2.96563 -7.9472,7.77139 -7.9942,14.16891 -0.075,10.18224 5.6433,16.55334 14.8627,16.56034 l 4.9244,0.004 -2.0494,-2.25 c -4.8613,-5.33726 -5.4826,-9.87217 -2.1621,-15.78023 4.4509,-7.91939 13.89,-9.24349 20.465,-2.87079 6.4046,6.20762 7.1042,15.97094 1.766,24.64552 -8.0254,13.04132 -25.7105,17.02395 -40.9782,9.22821 -4.5596,-2.32811 -7.8874,-4.89957 -10.0967,-7.8018 -1.9646,-2.58094 -3.4502,-3.79239 -3.6789,-3 -0.2109,0.731 -0.88,6.72909 -1.4869,13.32909 -3.4406,37.42146 -17.1016,79.26226 -36.2101,110.90423 l -4.1695,6.90423 2.7487,8.59577 c 8.1176,25.386 16.1735,34.94753 28.5023,33.82959 9.3024,-0.84351 15.081,-4.5623 28.5011,-18.34177 16.2216,-16.65593 20.0816,-18.03349 28.8654,-10.30168 17.9878,15.83352 30.1341,78.67797 28.2973,146.40963 -2.4393,89.9532 -20.7677,161.1901 -56.1421,218.2074 -4.1655,6.7141 -8.0117,12.4781 -8.5471,12.809 -1.3787,0.8521 -1.2221,-2.0559 1.0047,-18.6582 2.4818,-18.5036 3.9836,-43.6841 3.3015,-55.3582 -0.4631,-7.9276 -0.2231,-9.8341 2.0143,-16 15.0874,-41.5784 21.2524,-60.1984 32.7377,-98.87678 3.0275,-10.1954 3.1534,-11.2183 2.01,-16.32758 -0.6709,-2.9979 -1.4011,-5.2695 -1.6226,-5.048 -0.2215,0.2215 -2.6504,8.69388 -5.3975,18.82758 -2.747,10.13358 -10.5132,35.03088 -17.2581,55.32718 l -12.2635,36.9025 -0.6933,-5.9025 c -0.3814,-3.2463 -1.4182,-12.8774 -2.304,-21.4024 -0.8858,-8.525 -2.2609,-18.65 -3.0558,-22.5 -2.1032,-10.1871 -1.8762,-12.205 2.6603,-23.6438 9.5562,-24.09728 25.8925,-79.04094 25.8925,-87.0855 0,-3.88082 -1.4671,-5.12721 -2.3789,-2.02096 -7.2183,24.59208 -18.01,59.13618 -22.6374,72.46218 -3.291,9.47748 -5.9837,17.44678 -5.9837,17.70978 0,0.2629 -0.4232,0.051 -0.9406,-0.472 -0.5173,-0.5225 -2.1488,-6.35 -3.6255,-12.95 -1.4767,-6.59998 -3.7534,-15.27638 -5.0594,-19.28086 -1.3059,-4.0045 -2.3745,-8.3717 -2.3745,-9.7048 0,-1.3332 2.4245,-10.2068 5.3877,-19.71914 9.5014,-30.50125 16.6123,-57.17626 16.6123,-62.31761 0,-3.68704 -3.2016,-2.89489 -4.1602,1.02932 -4.8553,19.87574 -12.5915,43.10884 -18.3208,55.02061 -4.6717,9.71284 -9.3321,14.39811 -20.8027,20.9134 -5.381,3.05642 -10.8935,6.28432 -12.25,7.17312 -1.3564,0.8888 -2.4663,1.4051 -2.4663,1.1473 0,-0.2579 2.472,-5.6693 5.4933,-12.02549 3.0213,-6.35617 8.1538,-19.58448 11.4055,-29.39624 6.4688,-19.51882 7.7275,-24.33957 6.355,-24.33957 -2.3466,0 -5.4215,5.36694 -7.7527,13.53158 -4.3101,15.09609 -7.4784,23.38215 -14.5175,37.96842 -8.0425,16.6654 -12.4713,22.50388 -22.2016,29.26858 -4.0051,2.7844 -9.6812,7.1255 -12.6136,9.64698 -5.9372,5.1051 -8.2756,5.9233 -5.7017,1.9949 6.3139,-9.63618 27.5126,-52.49517 29.107,-58.84776 0.4852,-1.93322 0.2584,-2.5627 -0.9231,-2.5627 -1.0568,0 -5.9067,8.8629 -14.9116,27.25 -7.34,14.9875 -15.9729,31.93116 -19.1842,37.65266 -5.6747,10.1104 -5.8751,10.3336 -7.1288,7.9407 -2.6143,-4.9895 -4.6952,-19.92328 -4.0887,-29.34338 0.8945,-13.89448 4.4591,-24.57795 15.6167,-46.80406 8.8943,-17.7175 10.6535,-22.69592 8.02,-22.69592 -2.9183,0 -28.974,55.0944 -28.974,61.2652 0,0.7439 -0.6304,2.2147 -1.4009,3.2684 -1.3117,1.7939 -1.4659,1.6628 -2.4205,-2.0588 -5.7085,-22.25447 -6.3055,-25.24222 -5.7464,-28.75662 1.1138,-7.00124 12.1624,-31.48951 22.2061,-49.21818 4.9826,-8.79509 5.3774,-9.85661 4.3087,-11.58581 -1.105,-1.78788 -2.0266,-0.58445 -9.2557,12.08581 -4.8601,8.51811 -15.3066,30.93901 -17.1228,36.75 -1.2542,4.01271 -2.3025,2.40355 -3.4469,-5.29085 -1.5283,-10.27524 -1.4085,-16.39428 0.4222,-21.58342 2.5898,-7.34052 13.032,-27.97703 17.756,-35.09055 5.1525,-7.7587 6.262,-10.13687 4.4509,-9.54037 -3.2913,1.08405 -20.2992,30.124 -22.2913,38.06107 -1.0097,4.02291 -2.1092,3.26529 -2.8234,-1.94545 -1.0465,-7.63488 -0.7248,-16.74745 0.7662,-21.7015 0.7711,-2.56241 1.2249,-4.65893 1.0082,-4.65893 -0.2166,0 -5.685,3.18444 -12.1521,7.07653 -14.8129,8.91488 -34.52866,18.51696 -48.75827,23.74648 -10.49576,3.85729 -14.53547,5.12102 -27.89783,8.72715 -6.85967,1.85124 -8.58126,3.45638 -17.36522,16.1907 -15.3727,22.28617 -18.66373,35.14772 -11.17588,43.67594 6.42351,7.316 18.23981,10.11178 48.93893,11.57938 24.73346,1.1824 28.78534,2.3237 33.04397,9.3081 2.8711,4.70868 2.6403,14.80468 -0.55614,24.32668 -4.49255,13.3831 -17.83469,38.4582 -30.59343,57.4971 -41.76872,62.3282 -112.44839,108.737 -207.8944,136.5048 -36.73829,10.6882 -73.03329,18.4229 -102.5,21.8434 -7.15,0.83 -14.96055,1.7721 -17.35678,2.0936 -3.02122,0.4055 -4.14981,0.2498 -3.68162,-0.5078 z m 256.27274,-216.796 c 5.93223,-11.137 8.55978,-21.494 8.56633,-33.76608 0.0105,-19.69494 -6.75464,-34.69823 -20.56991,-45.61856 -5.89534,-4.66 -5.44946,-4.86634 -14.82397,6.86004 -11.75677,14.7063 -16.4598,28.32384 -15.62637,45.24602 0.79531,16.14838 5.72617,26.80728 18.66816,40.35488 l 7.55142,7.9047 6.04882,-6.6075 c 3.32685,-3.634 7.91033,-10.1021 10.18552,-14.3735 z m -23.23434,-12.4141 c -3.87501,-1.4176 -9.00618,-6.2916 -10.96139,-10.41188 -3.22661,-6.7996 -1.00431,-17.99658 4.59312,-23.14238 16.81899,-15.46187 40.83435,7.0746 27.80372,26.09156 -4.7988,7.0033 -13.96658,10.1951 -21.43545,7.4627 z M 708.63307,897.70744 c -0.6232,-11.12913 -3.1098,-18.29576 -9.2352,-26.61656 -5.3257,-7.23445 -11.879,-12.37316 -19.3668,-15.18633 -6.2663,-2.35424 -17.8896,-3.59422 -23.618,-2.51958 l -3.7165,0.69722 0.6365,6.18762 c 3.1253,30.38513 19.4898,46.29587 47.9317,46.60258 l 7.8863,0.0851 -0.518,-9.25 z m -32.2129,-3.47944 c -8.7033,-2.21078 -13.4667,-14.96104 -8.5821,-22.97201 5.4482,-8.93548 20.0503,-8.58246 25.4217,0.61459 4.3363,7.4248 1.4489,16.87571 -6.366,20.83686 -4.3473,2.20348 -6.5348,2.52106 -10.4736,1.52056 z m -447.29501,8.79171 c 6.63077,-2.54247 15.37903,-10.04147 19.07843,-16.35401 1.36458,-2.32849 3.24171,-6.85016 4.17139,-10.04817 1.69044,-5.8149 2.4942,-19.00274 1.23491,-20.26203 -1.22699,-1.22699 -17.98163,2.48967 -23.58755,5.23239 -13.33544,6.52443 -22.14384,21.92178 -22.14384,38.70813 v 5.91839 l 7.75,-0.49561 c 4.45243,-0.28474 10.19516,-1.43318 13.49666,-2.69909 z m -4.94233,-10.01827 c -6.55229,-3.99519 -8.55715,-11.42169 -4.8003,-17.78153 4.32947,-7.32921 14.75617,-8.80022 21.10919,-2.97812 6.88657,6.31107 5.10827,16.57225 -3.63315,20.9641 -4.53461,2.27826 -8.71454,2.21085 -12.67574,-0.20445 z M 476.3785,829.85813 c 20.69095,-2.51435 44.57951,-10.19856 63.12471,-20.30528 20.30959,-11.06827 42.13256,-29.46134 55.87756,-47.09541 32.1227,-41.21152 44.9477,-96.22107 34.4467,-147.75029 -13.7822,-67.63064 -65.29046,-122.38117 -130.4551,-138.6669 -12.91243,-3.22703 -25.79275,-4.96213 -44.99387,-6.0611 -20.4184,-1.16865 -29.62959,-2.32549 -40.74803,-5.11758 -33.55943,-8.42753 -61.45795,-27.00032 -83.66838,-55.70024 -1.82858,-2.36287 -3.50196,-4.11885 -3.71862,-3.9022 -0.21665,0.21666 0.53567,3.40357 1.67183,7.08203 3.07763,9.96422 5.95597,31.58726 5.93907,44.61628 -0.0436,33.63967 -9.12333,63.36615 -27.9353,91.45879 -21.6011,32.25774 -32.00152,65.58341 -32.00152,102.54121 0,85.83354 59.98691,159.25037 144.11499,176.37957 6.79028,1.38255 13.92096,2.69073 15.84596,2.90705 7.80459,0.87703 34.0696,0.63853 42.5,-0.38593 z M 444.37241,780.62135 C 436.728,778.12376 424.33926,770.93867 416.8785,764.6757 377.04434,731.23677 354.0716,650.39782 368.37164,593.9845 c 7.47527,-29.48976 24.8946,-50.87778 49.80231,-61.14889 26.49251,-10.92464 57.73571,-8.24835 80.55861,6.90063 28.4475,18.88237 42.53393,52.52527 40.86441,97.59726 -1.39622,37.69382 -12.93142,75.06607 -31.98423,103.62394 -11.34514,17.00501 -22.95891,27.54951 -39.25127,35.63746 -10.48994,5.20747 -17.01974,6.30347 -23.98906,4.02645 z m -26.06208,-42.40747 c -5.96833,-13.80466 -8.55693,-25.77479 -9.16188,-42.36623 -0.31757,-8.70963 -0.15118,-14.84558 0.412,-15.19364 0.51958,-0.32112 3.95946,0.51044 7.64418,1.84792 3.68471,1.33748 9.21698,2.82656 12.29393,3.30908 l 5.59445,0.87729 1.51829,-3.61543 c 2.02731,-4.82755 2.84853,-23.0373 1.36106,-30.18042 -2.88959,-13.87643 -10.96194,-24.78365 -22.59851,-30.53476 -6.31421,-3.12065 -8.64027,-3.71651 -16.18468,-4.14598 -9.60992,-0.54705 -19.39503,0.97295 -21.81,3.38792 -3.28892,3.28891 -1.1836,19.28162 3.96567,30.1245 2.64734,5.57456 5.55977,9.47346 11.84935,15.86285 l 8.33926,8.47161 1.15847,15.19942 c 1.36154,17.8637 4.40095,30.37994 10.18244,41.931 4.00473,8.00119 7.92788,14.17802 8.58663,13.51927 0.20037,-0.20037 -1.21743,-4.02285 -3.15066,-8.4944 z m 75.56817,-58.98785 c 17.00294,-8.29878 29.10766,-22.85144 32.56165,-39.14659 1.76278,-8.31643 1.85461,-17.5341 0.18835,-18.90716 -1.70734,-1.40692 -11.98891,-3.21484 -18.28267,-3.21484 h -5.16535 l -0.60045,-12.75 c -0.36743,-7.80218 -1.43055,-16.04854 -2.73953,-21.25 -2.05446,-8.16371 -9.58514,-25.71019 -10.5992,-24.69613 -0.26949,0.26948 0.6458,4.24886 2.03396,8.84305 3.09158,10.23175 4.38871,18.14431 5.23411,31.92843 0.72934,11.89175 -0.0901,19.92465 -2.03242,19.92465 -0.70345,0 -4.00465,1.36202 -7.33599,3.02671 -12.63358,6.31308 -20.71213,19.81713 -22.71681,37.97329 -0.63762,5.77492 1.74519,22.44059 3.51306,24.57074 1.78251,2.1478 15.4133,-1.16365 25.94129,-6.30215 z M 202.2406,540.83797 c 5.83569,-13.66755 13.15783,-27.02585 25.01371,-45.63421 5.22678,-8.20368 10.68505,-17.57766 12.12949,-20.83106 8.96914,-20.20167 8.53712,-44.91821 -1.0859,-62.12577 -9.60643,-17.1779 -25.06159,-25.26409 -42.78573,-22.38564 -26.34947,4.27923 -39.09134,27.81533 -33.14041,61.21516 2.84617,15.97419 6.29563,24.63321 17.16118,43.07895 11.3145,19.20787 15.13303,30.57076 16.84512,50.12642 0.37676,4.3034 0.82976,7.6784 1.00666,7.5 0.17691,-0.17841 2.36205,-5.10314 4.85588,-10.94385 z m 628.21647,-5.77686 c 4.8656,-2.20982 8.0396,-5.97195 9.4465,-11.19675 0.9882,-3.66997 0.4627,-8.94694 -0.8835,-8.87048 -0.3528,0.0201 -1.8846,1.67467 -3.404,3.67695 -3.5283,4.64987 -11.3062,10.49949 -17.1639,12.90865 -5.1151,2.10374 -5.6084,3.02649 -2.3237,4.3468 3.6991,1.48685 9.9858,1.10726 14.3286,-0.86517 z m -25.5786,-36.21651 c 6.6932,-3.14154 13.5141,-9.60391 16.0636,-15.2191 3.7972,-8.36297 1.5417,-17.42626 -5.9277,-23.8198 -4.6607,-3.98934 -5.0303,-4.84826 -2.0862,-4.84826 4.6126,0 11.8351,-5.88497 13.8867,-11.3151 1.3682,-3.6212 1.3666,-11.75505 0,-15.3698 -1.427,-3.76639 -4.7754,-7.28774 -8.415,-8.84968 -2.7888,-1.19682 -3.2166,-1.06739 -6.6131,2.00116 -1.9972,1.80441 -4.4805,3.76357 -5.5183,4.35368 -1.5939,0.90627 -1.6897,1.35304 -0.6169,2.87633 7.2406,10.28078 4.4918,21.83076 -6.0827,25.55869 -0.447,0.15758 0.1155,2.45191 1.25,5.09852 4.4687,10.42513 1.6437,22.66426 -7.5147,32.55636 -2.9742,3.21256 -6.7611,6.40159 -8.4152,7.08674 -5.3933,2.23398 -3.4004,3.2185 5.7425,2.83694 6.7923,-0.28346 9.9806,-0.94275 14.25,-2.94668 z m 18.3894,-86.27647 c 7.4708,-3.12154 10.0931,-17.21846 4.1532,-22.32769 -1.4597,-1.25565 -3.014,-2.283 -3.454,-2.283 -0.4399,0 -1.0492,3.2625 -1.3538,7.25 -0.3047,3.9875 -1.4946,9.62916 -2.6444,12.53702 -1.1497,2.90786 -2.0904,5.49536 -2.0904,5.75 0,0.83272 2.0036,0.48834 5.3894,-0.92633 z M 305.29096,357.95744 c -1.29536,-5.225 -3.08739,-15.575 -3.98229,-23 -0.89491,-7.425 -1.73127,-13.61097 -1.85857,-13.7466 -0.56541,-0.60238 -11.57839,3.22888 -16.5716,5.76501 -6.12329,3.11013 -14.002,8.5917 -13.9963,9.73786 0.002,0.40905 2.81453,2.20611 6.25,3.99346 8.99639,4.68051 18.8699,12.41309 25.95647,20.3282 3.38931,3.78557 6.25127,6.77918 6.35993,6.65246 0.10865,-0.12671 -0.86229,-4.50539 -2.15764,-9.73039 z M 576.21307,236.1668 c -1.74098,-1.49015 -7.92133,-5.63436 -13.73411,-9.20936 l -10.56869,-6.5 -0.0159,-5.43428 c -0.0536,-18.33081 -21.33891,-27.72525 -34.21673,-15.10181 l -3.87588,3.79931 -7.40154,-2.35043 c -12.66843,-4.02297 -26.60802,-6.42084 -36.67882,-6.30944 -10.45518,0.11566 -10.03611,0.30424 8.65708,3.89565 6.05,1.16235 15.95,3.77558 22,5.80718 l 11,3.69382 0.55538,7.1285 c 0.61162,7.85025 2.09236,10.85693 7.30489,14.83272 8.16841,6.23035 19.9091,5.50471 27.088,-1.6742 l 4.02078,-4.02078 14.01548,7.05931 c 7.70851,3.88261 14.24046,7.06692 14.51546,7.07623 0.275,0.009 -0.9244,-1.20227 -2.6654,-2.69242 z"
       id="path1580"
       inkscape:export-filename="path1580.svg"
       inkscape:export-xdpi="96"
       inkscape:export-ydpi="96" />
  </g>
</svg>
